<?xml version="1.0" standalone="no"?>
<!DOCTYPE svg PUBLIC "-//W3C//DTD SVG 20010904//EN"
 "http://www.w3.org/TR/2001/REC-SVG-20010904/DTD/svg10.dtd">
<svg version="1.0" xmlns="http://www.w3.org/2000/svg"
 width="500.000000pt" height="131.000000pt" viewBox="0 0 500.000000 131.000000"
 preserveAspectRatio="xMidYMid meet">

<g transform="translate(0.000000,131.000000) scale(0.100000,-0.100000)"
fill="#000000" stroke="none">
<path d="M0 655 l0 -655 2500 0 2500 0 0 655 0 655 -2500 0 -2500 0 0 -655z
m938 409 c3 -45 10 -36 -512 -674 l-69 -85 296 -3 297 -2 0 -50 0 -50 -375 0
-375 0 0 46 c0 45 4 50 291 402 l291 357 -281 3 -281 2 0 50 0 50 358 -2 357
-3 3 -41z m588 6 c7 -19 51 -136 99 -260 48 -124 111 -288 140 -365 29 -77 63
-164 74 -192 l21 -53 -64 0 -63 0 -23 62 c-12 35 -31 87 -42 116 l-19 52 -209
0 -208 0 -26 -72 c-14 -40 -32 -91 -40 -113 l-13 -40 -67 -3 -66 -3 21 53 c11
29 40 105 64 168 24 63 69 180 100 260 31 80 81 209 111 288 l56 143 70 -3 71
-3 13 -35z m925 21 c121 -39 178 -140 150 -267 -9 -41 -21 -61 -52 -88 -21
-20 -48 -36 -58 -36 -11 0 -23 -4 -26 -10 -3 -5 1 -10 10 -10 9 0 33 -9 54
-20 143 -73 159 -308 27 -399 -75 -52 -128 -61 -353 -61 l-203 0 0 456 0 456
208 -5 c117 -2 223 -9 243 -16z m877 -10 c96 -43 139 -117 129 -222 -7 -77
-35 -121 -95 -150 l-47 -23 33 -10 c18 -5 52 -26 77 -48 107 -94 97 -288 -20
-370 -68 -48 -128 -58 -352 -58 l-203 0 0 456 0 456 213 -4 c197 -3 216 -5
265 -27z m492 -426 l0 -455 -60 0 -60 0 0 455 0 455 60 0 60 0 0 -455z m486
290 l108 -165 109 165 110 165 65 0 64 0 -18 -27 c-9 -16 -73 -112 -141 -214
l-124 -186 155 -236 c86 -130 156 -238 156 -241 0 -3 -29 -6 -64 -6 l-63 0
-123 185 c-67 102 -125 185 -130 185 -4 0 -62 -83 -130 -185 l-123 -185 -64 0
c-49 0 -62 3 -57 13 4 6 74 112 156 234 81 123 148 227 148 233 0 6 -59 98
-131 206 -71 107 -133 202 -136 210 -4 11 8 14 60 14 l64 0 109 -165z"/>
<path d="M1355 763 c-44 -119 -81 -220 -83 -225 -2 -4 74 -8 168 -8 94 0 170
4 168 8 -1 5 -39 106 -83 225 -44 119 -82 217 -85 217 -3 0 -41 -98 -85 -217z"/>
<path d="M2120 870 l0 -142 133 4 c143 4 182 16 213 63 23 36 22 120 -3 154
-35 46 -67 55 -210 59 l-133 4 0 -142z"/>
<path d="M2120 464 l0 -166 149 4 c132 3 153 5 177 24 70 52 92 136 56 218
-32 72 -71 86 -244 86 l-138 0 0 -166z"/>
<path d="M2970 870 l0 -142 133 4 c148 5 184 16 217 71 27 43 25 96 -3 138
-36 54 -66 63 -214 67 l-133 4 0 -142z"/>
<path d="M2970 464 l0 -166 148 4 c169 4 199 14 232 78 42 83 17 186 -55 227
-36 21 -53 23 -182 23 l-143 0 0 -166z"/>
</g>
</svg>
